<svg width="30" height="30" viewBox="0 0 30 30" fill="none" xmlns="http://www.w3.org/2000/svg">
<rect x="0.5" y="0.5" width="29" height="29" rx="6.5" fill="white" stroke="#F3F3F3"/>
<path d="M18.15 9C16.932 9 15.763 9.57384 15 10.4807C14.237 9.57384 13.068 9 11.85 9C9.694 9 8 10.7144 8 12.8965C8 15.5744 10.38 17.7564 13.985 21.0719L15 22L16.015 21.0649C19.62 17.7564 22 15.5744 22 12.8965C22 10.7144 20.306 9 18.15 9ZM15.07 20.0163L15 20.0872L14.93 20.0163C11.598 16.9629 9.4 14.9439 9.4 12.8965C9.4 11.4796 10.45 10.4169 11.85 10.4169C12.928 10.4169 13.978 11.1183 14.349 12.0888H15.658C16.022 11.1183 17.072 10.4169 18.15 10.4169C19.55 10.4169 20.6 11.4796 20.6 12.8965C20.6 14.9439 18.402 16.9629 15.07 20.0163Z" fill="#ECECEC"/>
</svg>
